<?xml version="1.0" ?><!DOCTYPE svg  PUBLIC '-//W3C//DTD SVG 1.1//EN'  'http://www.w3.org/Graphics/SVG/1.1/DTD/svg11.dtd'><svg enable-background="new 0 0 24 24" height="24px" id="Layer_1" version="1.1" viewBox="0 0 24 24" width="24px" xml:space="preserve" xmlns="http://www.w3.org/2000/svg" xmlns:xlink="http://www.w3.org/1999/xlink"><g><path d="M12,24.5c-0.275,0-0.5-0.225-0.5-0.5V0c0-0.275,0.225-0.5,0.5-0.5s0.5,0.225,0.5,0.5v24C12.5,24.275,12.275,24.5,12,24.5z"/><path d="M7.5,1.5c0.553,0,1,0.448,1,1s-0.447,1-1,1s-1-0.448-1-1S6.947,1.5,7.5,1.5 M7.5,0.5c-1.104,0-2,0.896-2,2s0.896,2,2,2   s2-0.896,2-2S8.604,0.5,7.5,0.5L7.5,0.5z"/><path d="M12,5.834c-0.096,0-0.191-0.027-0.277-0.084L8.536,3.625c-0.229-0.153-0.292-0.464-0.14-0.693   c0.153-0.229,0.465-0.29,0.692-0.139l3.188,2.125c0.229,0.153,0.291,0.464,0.139,0.693C12.318,5.756,12.161,5.834,12,5.834z"/><path d="M7.5,7.5c0.553,0,1,0.448,1,1s-0.447,1-1,1s-1-0.448-1-1S6.947,7.5,7.5,7.5 M7.5,6.5c-1.104,0-2,0.896-2,2s0.896,2,2,2   s2-0.896,2-2S8.604,6.5,7.5,6.5L7.5,6.5z"/><path d="M12,11.834c-0.096,0-0.191-0.027-0.277-0.084L8.536,9.625c-0.229-0.153-0.292-0.464-0.14-0.693   c0.153-0.229,0.465-0.29,0.692-0.139l3.188,2.125c0.229,0.153,0.291,0.464,0.139,0.693C12.318,11.756,12.161,11.834,12,11.834z"/><path d="M7.5,13.5c0.553,0,1,0.448,1,1s-0.447,1-1,1s-1-0.448-1-1S6.947,13.5,7.5,13.5 M7.5,12.5c-1.104,0-2,0.896-2,2s0.896,2,2,2   s2-0.896,2-2S8.604,12.5,7.5,12.5L7.5,12.5z"/><path d="M12,17.834c-0.096,0-0.191-0.027-0.277-0.084l-3.187-2.125c-0.229-0.152-0.292-0.464-0.14-0.693   c0.153-0.229,0.465-0.291,0.692-0.139l3.188,2.125c0.229,0.152,0.291,0.464,0.139,0.693C12.318,17.756,12.161,17.834,12,17.834z"/><path d="M16.5,4.5c0.553,0,1,0.448,1,1s-0.447,1-1,1s-1-0.448-1-1S15.947,4.5,16.5,4.5 M16.5,3.5c-1.104,0-2,0.896-2,2s0.896,2,2,2   s2-0.896,2-2S17.604,3.5,16.5,3.5L16.5,3.5z"/><path d="M12,8.834c-0.161,0-0.318-0.078-0.416-0.223c-0.152-0.229-0.091-0.54,0.139-0.693l3.188-2.125   C15.139,5.64,15.45,5.7,15.604,5.932c0.152,0.229,0.09,0.54-0.14,0.693L12.277,8.75C12.191,8.807,12.096,8.834,12,8.834z"/><path d="M16.5,10.5c0.553,0,1,0.448,1,1s-0.447,1-1,1s-1-0.448-1-1S15.947,10.5,16.5,10.5 M16.5,9.5c-1.104,0-2,0.896-2,2   c0,1.104,0.896,2,2,2s2-0.896,2-2C18.5,10.396,17.604,9.5,16.5,9.5L16.5,9.5z"/><path d="M12,14.834c-0.161,0-0.318-0.078-0.416-0.223c-0.152-0.229-0.091-0.541,0.139-0.693l3.188-2.125   c0.228-0.153,0.539-0.093,0.692,0.139c0.151,0.229,0.09,0.54-0.141,0.693l-3.187,2.125C12.191,14.807,12.096,14.834,12,14.834z"/><path d="M16.5,16.5c0.553,0,1,0.448,1,1s-0.447,1-1,1s-1-0.448-1-1S15.947,16.5,16.5,16.5 M16.5,15.5c-1.104,0-2,0.896-2,2   s0.896,2,2,2s2-0.896,2-2S17.604,15.5,16.5,15.5L16.5,15.5z"/><path d="M12,20.834c-0.161,0-0.318-0.078-0.416-0.223c-0.152-0.229-0.091-0.541,0.139-0.693l3.188-2.125   c0.228-0.152,0.539-0.092,0.692,0.139c0.151,0.229,0.09,0.541-0.141,0.693l-3.187,2.125C12.191,20.807,12.096,20.834,12,20.834z"/></g></svg>